# xmcd
#
# Track frame offsets:
#	150
#	10307
#	23309
#	36549
#	48802
#	61877
#	74165
#	85212
#	97834
#	111631
#	124817
#	137412
#	150460
#	162571
#	174970
#	186179
#	201043
#	211584
#	224102
#	236705
#	249991
#	260681
#	273057
#	284277
#	294533
#	307823
#	319554
#	330383
#	340901
#	351722
#
# Disc length: 4835 seconds
#
# Revision: 0
# Processed by: cddbd v1.5.1PL2 Copyright (c) Steve Scherf et al.
# Submitted via: EasyCDDAExtractor 4.6.9.1
#
DISCID=bb12e11e
DTITLE=Red Foley - Sugarfoot Rag - Gonna Shake This Shack Tonight
DYEAR=2006
DGENRE=Country
TTITLE0=Crazy Little Guitar Man
TTITLE1=Freight Train Boogie
TTITLE2=Rockin' Chair Money
TTITLE3=Tennessee Saturday Night
TTITLE4=A Wonderful Time Up There
TTITLE5=Tennessee Border
TTITLE6=Sugarfoot Rag
TTITLE7=Chattanoogie Shoe Shine Boy
TTITLE8=Birmingham Bounce
TTITLE9=Old Kentucky Fox Chase
TTITLE10=Hillbilly Fever #2 (& Ernest Tubb)
TTITLE11=Hobo Boogie
TTITLE12=Crawdad Song (& Evelyn Knight)
TTITLE13=Paging Mister Jackson (& Cecil Gant)
TTITLE14=Hot Rod Race (& Cecil Gant)
TTITLE15=Giles Country, Pulaski Post Office
TTITLE16=Real Chicken Reel
TTITLE17=Night Train To Memphis (& Roberta Lee)
TTITLE18=Alabama Jubilee
TTITLE19=Salty Dog Rag
TTITLE20=Dixie
TTITLE21=Milk Bucket Boogie
TTITLE22=The Hoot Owl Boogie
TTITLE23=Hot Dog Rag
TTITLE24=Shake A Hand
TTITLE25=Pin Ball Boogie
TTITLE26=Hearts Of Stone
TTITLE27=Plantation Boogie
TTITLE28=Deep Blues
TTITLE29=Rock 'n' Reelin'
EXTD=
EXTT0=
EXTT1=
EXTT2=
EXTT3=
EXTT4=
EXTT5=
EXTT6=
EXTT7=
EXTT8=
EXTT9=
EXTT10=
EXTT11=
EXTT12=
EXTT13=
EXTT14=
EXTT15=
EXTT16=
EXTT17=
EXTT18=
EXTT19=
EXTT20=
EXTT21=
EXTT22=
EXTT23=
EXTT24=
EXTT25=
EXTT26=
EXTT27=
EXTT28=
EXTT29=
PLAYORDER=
